<?xml version="1.0" encoding="iso-8859-1"?>
<!-- Generator: Adobe Illustrator 19.0.0, SVG Export Plug-In . SVG Version: 6.00 Build 0)  -->
<svg version="1.1" id="Layer_1" xmlns="http://www.w3.org/2000/svg" xmlns:xlink="http://www.w3.org/1999/xlink" x="0px" y="0px"
	 viewBox="0 0 492.8 492.8" style="enable-background:new 0 0 492.8 492.8;" xml:space="preserve">
<path style="fill:#91C6C4;" d="M317.6,197.6c0,7.2-5.6,12.8-12.8,12.8h-76c-7.2,0-12.8-5.6-12.8-12.8v-56.8
	c0-7.2,5.6-12.8,12.8-12.8h76c7.2,0,12.8,5.6,12.8,12.8V197.6z"/>
<g>
	<path style="fill:#97CECE;" d="M384.8,174.4c0,7.2-5.6,12.8-12.8,12.8h-76c-7.2,0-12.8-5.6-12.8-12.8v-56.8
		c0-7.2,5.6-12.8,12.8-12.8h76c7.2,0,12.8,5.6,12.8,12.8V174.4z"/>
	<path style="fill:#97CECE;" d="M455.2,159.2h-220c-7.2,0-12.8,5.6-12.8,12.8v308c0,7.2,5.6,12.8,12.8,12.8h220
		c7.2,0,12.8-5.6,12.8-12.8V172C468,164.8,462.4,159.2,455.2,159.2z"/>
</g>
<path style="fill:#A5D3D3;" d="M468,172c0-7.2-5.6-12.8-12.8-12.8h-220c-7.2,0-12.8,5.6-12.8,12.8v308"/>
<path style="fill:#91C6C4;" d="M455.2,492.8c7.2,0,12.8-5.6,12.8-12.8V172c0-7.2-5.6-12.8-12.8-12.8h-220c-7.2,0-12.8,5.6-12.8,12.8
	"/>
<path style="fill:#A5D3D3;" d="M468,172c0-7.2-5.6-12.8-12.8-12.8h-220c-7.2,0-12.8,5.6-12.8,12.8"/>
<path style="fill:#D3EDEF;" d="M482.4,484c0,4-3.2,8-8,8H216c-4,0-8-3.2-8-8l0,0c0-4,3.2-8,8-8h258.4
	C479.2,476.8,482.4,480,482.4,484L482.4,484z"/>
<path style="fill:#C5E7E8;" d="M482.4,484L482.4,484c0,4-3.2,8-8,8H216c-4,0-8-3.2-8-8l0,0"/>
<path style="fill:#A6DADD;" d="M448,221.6c0,4-3.2,15.2-8,15.2H250.4c-4,0-8-11.2-8-15.2l0,0c0-4,3.2-8,8-8H440
	C444.8,213.6,448,216.8,448,221.6L448,221.6z"/>
<path style="fill:#0CAAEF;" d="M448,221.6c0,4-3.2,8-8,8H250.4c-4,0-8-3.2-8-8l0,0c0-4,3.2-8,8-8H440
	C444.8,213.6,448,216.8,448,221.6L448,221.6z"/>
<path style="fill:#118DEA;" d="M243.2,221.6c0-4,3.2-8,8-8h189.6c4,0,8,3.2,8,8l0,0c0,4-3.2,8-8,8"/>
<path style="fill:#A6DADD;" d="M448,261.6c0,4-3.2,15.2-8,15.2H250.4c-4,0-8-11.2-8-15.2l0,0c0-4,3.2-8,8-8H440
	C444.8,254.4,448,257.6,448,261.6L448,261.6z"/>
<path style="fill:#0CAAEF;" d="M448,261.6c0,4-3.2,8-8,8H250.4c-4,0-8-3.2-8-8l0,0c0-4,3.2-8,8-8H440
	C444.8,254.4,448,257.6,448,261.6L448,261.6z"/>
<path style="fill:#118DEA;" d="M243.2,261.6c0-4,3.2-8,8-8h189.6c4,0,8,3.2,8,8l0,0c0,4-3.2,8-8,8"/>
<path style="fill:#A6DADD;" d="M448,302.4c0,4-3.2,15.2-8,15.2H250.4c-4,0-8-11.2-8-15.2l0,0c0-4,3.2-8,8-8H440
	C444.8,294.4,448,298.4,448,302.4L448,302.4z"/>
<path style="fill:#0CAAEF;" d="M448,302.4c0,4-3.2,8-8,8H250.4c-4,0-8-3.2-8-8l0,0c0-4,3.2-8,8-8H440
	C444.8,294.4,448,298.4,448,302.4L448,302.4z"/>
<path style="fill:#118DEA;" d="M243.2,302.4c0-4,3.2-8,8-8h189.6c4,0,8,3.2,8,8l0,0c0,4-3.2,8-8,8"/>
<path style="fill:#A6DADD;" d="M448,343.2c0,4-3.2,15.2-8,15.2H250.4c-4,0-8-11.2-8-15.2l0,0c0-4,3.2-8,8-8H440
	C444.8,335.2,448,338.4,448,343.2L448,343.2z"/>
<path style="fill:#0CAAEF;" d="M448,343.2c0,4-3.2,8-8,8H250.4c-4,0-8-3.2-8-8l0,0c0-4,3.2-8,8-8H440
	C444.8,335.2,448,338.4,448,343.2L448,343.2z"/>
<path style="fill:#118DEA;" d="M243.2,343.2c0-4,3.2-8,8-8h189.6c4,0,8,3.2,8,8l0,0c0,4-3.2,8-8,8"/>
<path style="fill:#A6DADD;" d="M448,383.2c0,4-3.2,15.2-8,15.2H250.4c-4,0-8-11.2-8-15.2l0,0c0-4,3.2-8,8-8H440
	C444.8,375.2,448,379.2,448,383.2L448,383.2z"/>
<path style="fill:#0CAAEF;" d="M448,383.2c0,4-3.2,8-8,8H250.4c-4,0-8-3.2-8-8l0,0c0-4,3.2-8,8-8H440
	C444.8,375.2,448,379.2,448,383.2L448,383.2z"/>
<path style="fill:#118DEA;" d="M243.2,383.2c0-4,3.2-8,8-8h189.6c4,0,8,3.2,8,8l0,0c0,4-3.2,8-8,8"/>
<path style="fill:#A6DADD;" d="M448,424c0,4-3.2,15.2-8,15.2H250.4c-4,0-8-11.2-8-15.2l0,0c0-4,3.2-8,8-8H440
	C444.8,416,448,419.2,448,424L448,424z"/>
<path style="fill:#0CAAEF;" d="M448,424c0,4-3.2,8-8,8H250.4c-4,0-8-3.2-8-8l0,0c0-4,3.2-8,8-8H440C444.8,416,448,419.2,448,424
	L448,424z"/>
<path style="fill:#118DEA;" d="M243.2,424c0-4,3.2-8,8-8h189.6c4,0,8,3.2,8,8l0,0c0,4-3.2,8-8,8"/>
<path style="fill:#D3EDEF;" d="M257.6,0h-220c-7.2,0-12.8,5.6-12.8,12.8V480c0,7.2,5.6,12.8,12.8,12.8h220c7.2,0,12.8-5.6,12.8-12.8
	V12.8C269.6,5.6,264,0,257.6,0z"/>
<path style="fill:#E8F7F7;" d="M269.6,12.8C269.6,5.6,264,0,256.8,0H37.6c-7.2,0-12.8,5.6-12.8,12.8V480"/>
<path style="fill:#C5E7E8;" d="M257.6,492.8c7.2,0,12.8-5.6,12.8-12.8V12.8c0-7.2-5.6-12.8-12.8-12.8h-220
	c-7.2,0-12.8,5.6-12.8,12.8"/>
<path style="fill:#EDF7F7;" d="M269.6,12.8C269.6,5.6,264,0,256.8,0H37.6c-7.2,0-12.8,5.6-12.8,12.8"/>
<path style="fill:#D3EDEF;" d="M284,484c0,4-3.2,8-8,8H18.4c-4,0-8-3.2-8-8l0,0c0-4,3.2-8,8-8h258.4C280.8,476.8,284,480,284,484
	L284,484z"/>
<path style="fill:#C5E7E8;" d="M284,484L284,484c0,4-3.2,8-8,8H18.4c-4,0-8-3.2-8-8l0,0"/>
<path style="fill:#A6DADD;" d="M249.6,59.2c0,4-3.2,15.2-8,15.2H52.8c-4,0-8-11.2-8-15.2l0,0c0-4,3.2-8,8-8h189.6
	C246.4,52,249.6,55.2,249.6,59.2L249.6,59.2z"/>
<path style="fill:#0CAAEF;" d="M249.6,59.2c0,4-3.2,8-8,8H52.8c-4,0-8-3.2-8-8l0,0c0-4,3.2-8,8-8h189.6
	C246.4,52,249.6,55.2,249.6,59.2L249.6,59.2z"/>
<path style="fill:#118DEA;" d="M44.8,59.2c0-4,3.2-8,8-8h189.6c4,0,8,3.2,8,8l0,0c0,4-3.2,8-8,8"/>
<path style="fill:#A6DADD;" d="M249.6,100c0,4-3.2,15.2-8,15.2H52.8c-4,0-8-11.2-8-15.2l0,0c0-4,3.2-8,8-8h189.6
	C246.4,92,249.6,96,249.6,100L249.6,100z"/>
<path style="fill:#0CAAEF;" d="M249.6,100c0,4-3.2,8-8,8H52.8c-4,0-8-3.2-8-8l0,0c0-4,3.2-8,8-8h189.6C246.4,92,249.6,96,249.6,100
	L249.6,100z"/>
<path style="fill:#118DEA;" d="M44.8,100c0-4,3.2-8,8-8h189.6c4,0,8,3.2,8,8l0,0c0,4-3.2,8-8,8"/>
<path style="fill:#A6DADD;" d="M249.6,140.8c0,4-3.2,15.2-8,15.2H52.8c-4,0-8-11.2-8-15.2l0,0c0-4,3.2-8,8-8h189.6
	C246.4,132.8,249.6,136,249.6,140.8L249.6,140.8z"/>
<path style="fill:#0CAAEF;" d="M249.6,140.8c0,4-3.2,8-8,8H52.8c-4,0-8-3.2-8-8l0,0c0-4,3.2-8,8-8h189.6
	C246.4,132.8,249.6,136,249.6,140.8L249.6,140.8z"/>
<path style="fill:#118DEA;" d="M44.8,140.8c0-4,3.2-8,8-8h189.6c4,0,8,3.2,8,8l0,0c0,4-3.2,8-8,8"/>
<path style="fill:#A6DADD;" d="M249.6,180.8c0,4-3.2,15.2-8,15.2H52.8c-4,0-8-11.2-8-15.2l0,0c0-4,3.2-8,8-8h189.6
	C246.4,172.8,249.6,176.8,249.6,180.8L249.6,180.8z"/>
<path style="fill:#0CAAEF;" d="M249.6,180.8c0,4-3.2,8-8,8H52.8c-4,0-8-3.2-8-8l0,0c0-4,3.2-8,8-8h189.6
	C246.4,172.8,249.6,176.8,249.6,180.8L249.6,180.8z"/>
<path style="fill:#118DEA;" d="M44.8,180.8c0-4,3.2-8,8-8h189.6c4,0,8,3.2,8,8l0,0c0,4-3.2,8-8,8"/>
<path style="fill:#A6DADD;" d="M249.6,221.6c0,4-3.2,15.2-8,15.2H52.8c-4,0-8-11.2-8-15.2l0,0c0-4,3.2-8,8-8h189.6
	C246.4,213.6,249.6,216.8,249.6,221.6L249.6,221.6z"/>
<path style="fill:#0CAAEF;" d="M249.6,221.6c0,4-3.2,8-8,8H52.8c-4,0-8-3.2-8-8l0,0c0-4,3.2-8,8-8h189.6
	C246.4,213.6,249.6,216.8,249.6,221.6L249.6,221.6z"/>
<path style="fill:#118DEA;" d="M44.8,221.6c0-4,3.2-8,8-8h189.6c4,0,8,3.2,8,8l0,0c0,4-3.2,8-8,8"/>
<path style="fill:#A6DADD;" d="M249.6,261.6c0,4-3.2,15.2-8,15.2H52.8c-4,0-8-11.2-8-15.2l0,0c0-4,3.2-8,8-8h189.6
	C246.4,254.4,249.6,257.6,249.6,261.6L249.6,261.6z"/>
<path style="fill:#0CAAEF;" d="M249.6,261.6c0,4-3.2,8-8,8H52.8c-4,0-8-3.2-8-8l0,0c0-4,3.2-8,8-8h189.6
	C246.4,254.4,249.6,257.6,249.6,261.6L249.6,261.6z"/>
<path style="fill:#118DEA;" d="M44.8,261.6c0-4,3.2-8,8-8h189.6c4,0,8,3.2,8,8l0,0c0,4-3.2,8-8,8"/>
<path style="fill:#A6DADD;" d="M249.6,302.4c0,4-3.2,15.2-8,15.2H52.8c-4,0-8-11.2-8-15.2l0,0c0-4,3.2-8,8-8h189.6
	C246.4,294.4,249.6,298.4,249.6,302.4L249.6,302.4z"/>
<path style="fill:#0CAAEF;" d="M249.6,302.4c0,4-3.2,8-8,8H52.8c-4,0-8-3.2-8-8l0,0c0-4,3.2-8,8-8h189.6
	C246.4,294.4,249.6,298.4,249.6,302.4L249.6,302.4z"/>
<path style="fill:#118DEA;" d="M44.8,302.4c0-4,3.2-8,8-8h189.6c4,0,8,3.2,8,8l0,0c0,4-3.2,8-8,8"/>
<path style="fill:#A6DADD;" d="M249.6,343.2c0,4-3.2,15.2-8,15.2H52.8c-4,0-8-11.2-8-15.2l0,0c0-4,3.2-8,8-8h189.6
	C246.4,335.2,249.6,338.4,249.6,343.2L249.6,343.2z"/>
<path style="fill:#0CAAEF;" d="M249.6,343.2c0,4-3.2,8-8,8H52.8c-4,0-8-3.2-8-8l0,0c0-4,3.2-8,8-8h189.6
	C246.4,335.2,249.6,338.4,249.6,343.2L249.6,343.2z"/>
<path style="fill:#118DEA;" d="M44.8,343.2c0-4,3.2-8,8-8h189.6c4,0,8,3.2,8,8l0,0c0,4-3.2,8-8,8"/>
<path style="fill:#A6DADD;" d="M249.6,383.2c0,4-3.2,15.2-8,15.2H52.8c-4,0-8-11.2-8-15.2l0,0c0-4,3.2-8,8-8h189.6
	C246.4,375.2,249.6,379.2,249.6,383.2L249.6,383.2z"/>
<path style="fill:#0CAAEF;" d="M249.6,383.2c0,4-3.2,8-8,8H52.8c-4,0-8-3.2-8-8l0,0c0-4,3.2-8,8-8h189.6
	C246.4,375.2,249.6,379.2,249.6,383.2L249.6,383.2z"/>
<path style="fill:#118DEA;" d="M44.8,383.2c0-4,3.2-8,8-8h189.6c4,0,8,3.2,8,8l0,0c0,4-3.2,8-8,8"/>
<path style="fill:#A6DADD;" d="M249.6,424c0,4-3.2,15.2-8,15.2H52.8c-4,0-8-11.2-8-15.2l0,0c0-4,3.2-8,8-8h189.6
	C246.4,416,249.6,419.2,249.6,424L249.6,424z"/>
<path style="fill:#0CAAEF;" d="M249.6,424c0,4-3.2,8-8,8H52.8c-4,0-8-3.2-8-8l0,0c0-4,3.2-8,8-8h189.6
	C246.4,416,249.6,419.2,249.6,424L249.6,424z"/>
<path style="fill:#118DEA;" d="M44.8,424c0-4,3.2-8,8-8h189.6c4,0,8,3.2,8,8l0,0c0,4-3.2,8-8,8"/>
<g>
	<path style="fill:#91C6C4;" d="M414.4,149.6c0,0.8,0.8,1.6,1.6,1.6l0,0c0.8,0,1.6-0.8,1.6-1.6V28.8c0-0.8-0.8-1.6-1.6-1.6l0,0
		c-0.8,0-1.6,0.8-1.6,1.6V149.6z"/>
	<circle style="fill:#91C6C4;" cx="416.8" cy="22.4" r="11.2"/>
	<path style="fill:#91C6C4;" d="M442.4,149.6c0,0.8,0.8,1.6,1.6,1.6l0,0c0.8,0,1.6-0.8,1.6-1.6V71.2c0-0.8-0.8-1.6-1.6-1.6l0,0
		c-0.8,0-1.6,0.8-1.6,1.6V149.6z"/>
	<circle style="fill:#91C6C4;" cx="444" cy="62.4" r="11.2"/>
</g>
<g>
</g>
<g>
</g>
<g>
</g>
<g>
</g>
<g>
</g>
<g>
</g>
<g>
</g>
<g>
</g>
<g>
</g>
<g>
</g>
<g>
</g>
<g>
</g>
<g>
</g>
<g>
</g>
<g>
</g>
</svg>
