<?xml version="1.0" encoding="iso-8859-1"?>
<!-- Generator: Adobe Illustrator 16.0.0, SVG Export Plug-In . SVG Version: 6.00 Build 0)  -->
<!DOCTYPE svg PUBLIC "-//W3C//DTD SVG 1.1//EN" "http://www.w3.org/Graphics/SVG/1.1/DTD/svg11.dtd">
<svg xmlns="http://www.w3.org/2000/svg" xmlns:xlink="http://www.w3.org/1999/xlink" version="1.1" id="Capa_1" x="0px" y="0px" width="512px" height="512px" viewBox="0 0 407.184 407.184" style="enable-background:new 0 0 407.184 407.184;" xml:space="preserve">
<g>
	<path d="M407.184,189.266v-65.475H0v65.481h19.954v28.638H0v65.482h407.184V217.91h-23.018v-28.638h23.018V189.266z    M72.629,256.563h-28.3v-27.688h28.3V256.563z M72.629,217.056h-28.3v-27.683h28.3V217.056z M72.629,178.295h-28.3V150.61h28.3   V178.295z M114.467,256.563H86.162v-27.688h28.305V256.563z M114.467,217.056H86.162v-27.683h28.305V217.056z M114.467,178.295   H86.162V150.61h28.305V178.295z M155.695,256.563h-28.305v-27.688h28.305V256.563z M155.695,217.056h-28.305v-27.683h28.305   V217.056z M155.695,178.295h-28.305V150.61h28.305V178.295z M196.492,256.563H168.19v-27.688h28.302V256.563z M196.492,217.056   H168.19v-27.683h28.302V217.056z M196.492,178.295H168.19V150.61h28.302V178.295z M238.334,256.563h-28.309v-27.688h28.309V256.563   z M238.334,217.056h-28.309v-27.683h28.309V217.056z M238.334,178.295h-28.309V150.61h28.309V178.295z M279.564,256.563h-28.301   v-27.688h28.301V256.563z M279.564,217.056h-28.301v-27.683h28.301V217.056z M279.564,178.295h-28.301V150.61h28.301V178.295z    M342.876,255.765H306.34v-16.881h36.536V255.765z M324.467,208.377c-16.109,0-29.16-13.058-29.16-29.157   c0-16.099,13.051-29.152,29.16-29.152c16.111,0,29.157,13.053,29.157,29.152C353.625,195.319,340.566,208.377,324.467,208.377z    M342.876,179.036c0,10.09-8.176,18.272-18.267,18.272c-10.09,0-18.274-8.182-18.274-18.272c0-10.093,8.181-18.268,18.274-18.268   C334.701,160.768,342.876,168.943,342.876,179.036z" fill="#42464f"/>
</g>
<g>
</g>
<g>
</g>
<g>
</g>
<g>
</g>
<g>
</g>
<g>
</g>
<g>
</g>
<g>
</g>
<g>
</g>
<g>
</g>
<g>
</g>
<g>
</g>
<g>
</g>
<g>
</g>
<g>
</g>
</svg>
