<?xml version="1.0" encoding="iso-8859-1"?>
<!-- Generator: Adobe Illustrator 19.0.0, SVG Export Plug-In . SVG Version: 6.00 Build 0)  -->
<svg version="1.1" id="Capa_1" xmlns="http://www.w3.org/2000/svg" xmlns:xlink="http://www.w3.org/1999/xlink" x="0px" y="0px"
	 viewBox="0 0 512 512" style="enable-background:new 0 0 512 512;" xml:space="preserve">
<rect x="284.554" style="fill:#344A5E;" width="135.877" height="40.369"/>
<polygon style="fill:#425A6B;" points="246.154,40.369 246.154,135.877 280.615,135.877 280.615,175.262 320,175.262 320,512 
	458.831,512 458.831,40.369 "/>
<g>
	<path style="fill:#ACB2BA;" d="M420.431,107.323c0-5.908-4.923-10.831-10.831-10.831H295.385c-5.908,0-10.831,4.923-10.831,10.831
		c0,5.908,4.923,10.831,10.831,10.831H409.6C415.508,118.154,420.431,113.231,420.431,107.323z"/>
	<path style="fill:#ACB2BA;" d="M409.6,299.323H320c-5.908,0-10.831,4.923-10.831,10.831c0,5.908,4.923,10.831,10.831,10.831h89.6
		c5.908,0,10.831-4.923,10.831-10.831C420.431,303.262,415.508,299.323,409.6,299.323z"/>
	<path style="fill:#ACB2BA;" d="M409.6,164.431H320c-5.908,0-10.831,4.923-10.831,10.831c0,5.908,4.923,10.831,10.831,10.831h89.6
		c5.908,0,10.831-4.923,10.831-10.831C420.431,169.354,415.508,164.431,409.6,164.431z"/>
	<path style="fill:#ACB2BA;" d="M409.6,366.277H320c-5.908,0-10.831,4.923-10.831,10.831s4.923,10.831,10.831,10.831h89.6
		c5.908,0,10.831-4.923,10.831-10.831S415.508,366.277,409.6,366.277z"/>
	<path style="fill:#ACB2BA;" d="M409.6,231.385H320c-5.908,0-10.831,4.923-10.831,10.831c0,5.908,4.923,10.831,10.831,10.831h89.6
		c5.908,0,10.831-4.923,10.831-10.831C420.431,236.308,415.508,231.385,409.6,231.385z"/>
	<path style="fill:#ACB2BA;" d="M409.6,433.231H320c-5.908,0-10.831,4.923-10.831,10.831c0,5.908,4.923,10.831,10.831,10.831h89.6
		c5.908,0,10.831-4.923,10.831-10.831C420.431,438.154,415.508,433.231,409.6,433.231z"/>
</g>
<rect x="53.169" y="175.262" style="fill:#E8EAE8;" width="267.815" height="336.738"/>
<rect x="92.554" y="135.877" style="fill:#ACB2BA;" width="188.062" height="39.385"/>
<rect x="124.062" y="424.369" style="fill:#344A5E;" width="125.046" height="87.631"/>
<rect x="124.062" y="424.369" style="fill:#425A6B;" width="63.015" height="87.631"/>
<g>
	<path style="fill:#56BFEB;" d="M105.354,213.662c-5.908,0-10.831,4.923-10.831,10.831v132.923c0,5.908,4.923,10.831,10.831,10.831
		c5.908,0,10.831-4.923,10.831-10.831V224.492C116.185,218.585,111.262,213.662,105.354,213.662z"/>
	<path style="fill:#56BFEB;" d="M159.508,213.662c-5.908,0-10.831,4.923-10.831,10.831v132.923c0,5.908,4.923,10.831,10.831,10.831
		c5.908,0,10.831-4.923,10.831-10.831V224.492C170.338,218.585,165.415,213.662,159.508,213.662z"/>
	<path style="fill:#56BFEB;" d="M213.662,213.662c-5.908,0-10.831,4.923-10.831,10.831v132.923c0,5.908,4.923,10.831,10.831,10.831
		s10.831-4.923,10.831-10.831V224.492C224.492,218.585,219.569,213.662,213.662,213.662z"/>
	<path style="fill:#56BFEB;" d="M267.815,213.662c-5.908,0-10.831,4.923-10.831,10.831v132.923c0,5.908,4.923,10.831,10.831,10.831
		c5.908,0,10.831-4.923,10.831-10.831V224.492C278.646,218.585,273.723,213.662,267.815,213.662z"/>
</g>
<g>
</g>
<g>
</g>
<g>
</g>
<g>
</g>
<g>
</g>
<g>
</g>
<g>
</g>
<g>
</g>
<g>
</g>
<g>
</g>
<g>
</g>
<g>
</g>
<g>
</g>
<g>
</g>
<g>
</g>
</svg>
