<svg xmlns:dc="http://purl.org/dc/elements/1.1/" xmlns:cc="http://creativecommons.org/ns#" xmlns:rdf="http://www.w3.org/1999/02/22-rdf-syntax-ns#" xmlns:svg="http://www.w3.org/2000/svg" xmlns="http://www.w3.org/2000/svg" xmlns:sodipodi="http://sodipodi.sourceforge.net/DTD/sodipodi-0.dtd" xmlns:inkscape="http://www.inkscape.org/namespaces/inkscape" version="1.1" viewBox="0 0 16 20" x="0px" y="0px"><g transform="translate(0,-1036.3622)"><path style="opacity:1;fill:#fbb041;fill-opacity:1;stroke:none;stroke-width:0.60000002;stroke-linecap:round;stroke-linejoin:round;stroke-miterlimit:4;stroke-dasharray:none;stroke-opacity:1;" d="m 11.749978,1038.3622 c -1.205975,0 -2.272468,0.6155 -2.902344,1.5488 l -1.097656,-0.5488 -7.000001,3.5 7.000001,3.5 2.597656,-1.3008 c 0,0 0.002,0 0.002,0 0.430051,0.1895 0.901826,0.3008 1.400391,0.3008 0.226843,0 0.447068,-0.027 0.662109,-0.068 -0.214245,0.043 -0.435043,0.068 -0.662109,0.068 l -4,2 -6.000001,-3 -1,0.5 7.000001,3.5 7,-3.5 -0.726562,-0.3633 c 0.744247,-0.6428 1.226562,-1.5806 1.226562,-2.6367 0,-1.927 -1.572926,-3.5 -3.5,-3.5 z m 0,1 c 1.386634,0 2.5,1.1134 2.5,2.5 0,1.3867 -1.113366,2.5 -2.5,2.5 -1.386634,0 -2.5,-1.1133 -2.5,-2.5 0,-1.3866 1.113366,-2.5 2.5,-2.5 z m -2.90625,0.5547 c -0.108107,0.1609 -0.198669,0.3336 -0.279297,0.5117 0.0807,-0.1781 0.171232,-0.3509 0.279297,-0.5117 z m 2.40625,0.4375 0,1.0078 -1.007812,0 0,1 1.007812,0 0,1.0078 1,0 0,-1.0078 1.007812,0 0,-1 -1.007812,0 0,-1.0078 z m -2.763672,0.2734 c -0.05116,0.1345 -0.09451,0.2723 -0.128906,0.4141 0.03453,-0.142 0.07757,-0.2793 0.128906,-0.4141 z m -0.171875,0.5996 c -0.03809,0.2062 -0.06445,0.418 -0.06445,0.6348 0,0.2201 0.02717,0.4335 0.06641,0.6426 -0.03946,-0.2091 -0.06641,-0.4222 -0.06641,-0.6426 0,-0.2171 0.02616,-0.4283 0.06445,-0.6348 z m 0.03906,1.4356 c 0.03522,0.1485 0.07925,0.2929 0.132813,0.4336 -0.05389,-0.1407 -0.09739,-0.285 -0.132813,-0.4336 z m 0.208985,0.6289 c 0.07905,0.175 0.169793,0.3435 0.27539,0.5019 -0.105878,-0.158 -0.196079,-0.3273 -0.27539,-0.5019 z m 0.386719,0.6426 c 0.07821,0.1052 0.158802,0.2089 0.248046,0.3046 -0.08965,-0.096 -0.169471,-0.1995 -0.248046,-0.3046 z m 0.458984,0.5097 c 0.07272,0.066 0.148502,0.1277 0.226562,0.1875 -0.07811,-0.06 -0.153778,-0.1217 -0.226562,-0.1875 z m 0.474609,0.3653 c 0.116671,0.074 0.239816,0.1389 0.365235,0.1992 -0.125713,-0.06 -0.248256,-0.125 -0.365235,-0.1992 z m 3.128907,0.3066 c -0.07997,0.032 -0.165324,0.05 -0.248047,0.076 0.0828,-0.025 0.167947,-0.045 0.248047,-0.076 z m -11.26172,1.2461 -1,0.5 7.000001,3.5 7,-3.5 -1,-0.5 -6,3 z"/></g><style type="text/css">
	.st0{fill:#030102;}
</style><text x="0" y="31" fill="#000000" font-size="5px" font-weight="bold" font-family="'Helvetica Neue', Helvetica, Arial-Unicode, Arial, Sans-serif">Created by Dev Patel</text><text x="0" y="36" fill="#000000" font-size="5px" font-weight="bold" font-family="'Helvetica Neue', Helvetica, Arial-Unicode, Arial, Sans-serif">from the Noun Project</text></svg>