<?xml version="1.0" encoding="iso-8859-1"?>
<!-- Generator: Adobe Illustrator 19.0.0, SVG Export Plug-In . SVG Version: 6.00 Build 0)  -->
<svg version="1.1" id="Capa_1" xmlns="http://www.w3.org/2000/svg" xmlns:xlink="http://www.w3.org/1999/xlink" x="0px" y="0px"
	 viewBox="0 0 512 512" style="enable-background:new 0 0 512 512;" xml:space="preserve">
<g>
	<rect x="241" y="365.83" style="fill:#8B8992;" width="30" height="61.61"/>
	<rect y="445.75" style="fill:#8B8992;" width="222.69" height="30"/>
</g>
<rect x="289.31" y="445.75" style="fill:#78777F;" width="222.69" height="30"/>
<path style="fill:#D9D9DB;" d="M256,409.5c-28.26,0-51.25,22.99-51.25,51.25S227.74,512,256,512c14.11,0,26.91-5.74,36.19-15
	c9-8.98,14.68-21.27,15.04-34.87c0.01-0.48,0.02-0.94,0.02-1.38C307.25,432.49,284.26,409.5,256,409.5z M256,482
	c-11.72,0-21.25-9.53-21.25-21.25s9.53-21.25,21.25-21.25s21.25,9.53,21.25,21.25S267.72,482,256,482z"/>
<rect x="256" y="365.83" style="fill:#78777F;" width="15" height="61.61"/>
<path style="fill:#AEADB3;" d="M307.25,460.75c0,0.44-0.01,0.9-0.02,1.38c-0.36,13.6-6.04,25.89-15.04,34.87
	c-9.28,9.26-22.08,15-36.19,15v-30c11.72,0,21.25-9.53,21.25-21.25S267.72,439.5,256,439.5v-30
	C284.26,409.5,307.25,432.49,307.25,460.75z"/>
<rect x="62.33" style="fill:#FF973F;" width="387.34" height="370.11"/>
<rect x="62.33" y="123.03" style="fill:#FFC687;" width="387.34" height="123.02"/>
<rect x="62.33" y="246.06" style="fill:#FF973F;" width="387.34" height="123.02"/>
<rect x="256" y="123.03" style="fill:#FFA76C;" width="193.67" height="123.02"/>
<g>
	<rect x="256" style="fill:#F76D2A;" width="193.67" height="123.02"/>
	<rect x="256" y="246.06" style="fill:#F76D2A;" width="193.67" height="123.02"/>
</g>
<g>
	<rect x="314.37" y="295" style="fill:#78777F;" width="29.75" height="29.75"/>
	<rect x="374.12" y="295" style="fill:#78777F;" width="29.75" height="29.75"/>
</g>
<g>
	<rect x="314.37" y="169.67" style="fill:#8B8992;" width="29.75" height="29.75"/>
	<rect x="374.12" y="169.67" style="fill:#8B8992;" width="29.75" height="29.75"/>
</g>
<g>
	<rect x="314.37" y="44.34" style="fill:#78777F;" width="29.75" height="29.75"/>
	<rect x="374.12" y="44.34" style="fill:#78777F;" width="29.75" height="29.75"/>
</g>
<g>
</g>
<g>
</g>
<g>
</g>
<g>
</g>
<g>
</g>
<g>
</g>
<g>
</g>
<g>
</g>
<g>
</g>
<g>
</g>
<g>
</g>
<g>
</g>
<g>
</g>
<g>
</g>
<g>
</g>
</svg>
