<svg width="1024" height="768" xmlns="http://www.w3.org/2000/svg">
 <!-- Created with Method Draw - http://github.com/duopixel/Method-Draw/ -->
 <g>
  <title>background</title>
  <rect fill="none" id="canvas_background" height="770" width="1026" y="-1" x="-1"/>
  <g display="none" overflow="visible" y="0" x="0" height="100%" width="100%" id="canvasGrid">
   <rect fill="url(#gridpattern)" stroke-width="0" y="0" x="0" height="100%" width="100%"/>
  </g>
 </g>
 <g>
  <title>Layer 1</title>
  <rect stroke="#000" id="svg_4" height="438.049519" width="144.582761" y="43.957893" x="416.967452" stroke-opacity="null" stroke-width="15" fill="none"/>
  <ellipse id="svg_6" cy="193.5" cx="548.5" fill-opacity="null" stroke-opacity="null" stroke-width="17.5" stroke="#000" fill="#fff"/>
  <ellipse id="svg_8" cy="161.5" cx="80.5" fill-opacity="null" stroke-opacity="null" stroke-width="17.5" stroke="#000" fill="#fff"/>
  <rect stroke="#050504" id="svg_17" height="23.099788" width="109.036372" y="32.760786" x="436.502205" stroke-width="0.1" fill="#000000"/>
  <rect stroke="#050504" id="svg_22" height="421.671218" width="7.11111" y="50.940895" x="414.674658" stroke-width="0.1" fill="#b2adad"/>
  <rect stroke="#050504" id="svg_23" height="420.732367" width="7.11111" y="51.206243" x="556.776529" stroke-width="0.1" fill="#b2adad"/>
  <path stroke="#050504" id="svg_24" d="m416.840094,63.117472l0,0c0,-0.963284 0.780895,-1.74418 1.744177,-1.74418l0,0c0.462584,0 0.906222,0.183761 1.233319,0.510858c0.327097,0.327097 0.510857,0.770736 0.510857,1.233321l0,0c0,0.963284 -0.780894,1.744179 -1.744177,1.744179l0,0c-0.963282,0 -1.744177,-0.780896 -1.744177,-1.744179zm1.744177,-1.74418l0,3.488359m-1.744177,-1.744179l3.488354,0" stroke-width="0.1" fill="#6b6b6b"/>
  <path stroke="#050504" id="svg_25" d="m416.840098,86.373196l0,0c0,-0.96328 0.78089,-1.74418 1.74417,-1.74418l0,0c0.46259,0 0.90623,0.18377 1.23332,0.51086c0.3271,0.3271 0.51086,0.77074 0.51086,1.23332l0,0c0,0.96329 -0.7809,1.74418 -1.74418,1.74418l0,0c-0.96328,0 -1.74417,-0.78089 -1.74417,-1.74418zm1.74417,-1.74418l0,3.48836m-1.74417,-1.74418l3.48835,0" stroke-width="0.1" fill="#6b6b6b"/>
  <path stroke="#050504" id="svg_26" d="m558.181502,63.299027l0,0c0,-0.96328 0.78089,-1.74418 1.74417,-1.74418l0,0c0.46259,0 0.90623,0.18377 1.23332,0.51086c0.3271,0.3271 0.51086,0.77074 0.51086,1.23332l0,0c0,0.96329 -0.7809,1.74418 -1.74418,1.74418l0,0c-0.96328,0 -1.74417,-0.78089 -1.74417,-1.74418zm1.74417,-1.74418l0,3.48836m-1.74417,-1.74418l3.48835,0" stroke-width="0.1" fill="#6b6b6b"/>
  <path stroke="#050504" id="svg_27" d="m558.1815,87.06607l0,0c0,-0.96328 0.78089,-1.74418 1.74417,-1.74418l0,0c0.46259,0 0.90623,0.18377 1.23332,0.51086c0.3271,0.3271 0.51086,0.77074 0.51086,1.23332l0,0c0,0.96329 -0.7809,1.74418 -1.74418,1.74418l0,0c-0.96328,0 -1.74417,-0.78089 -1.74417,-1.74418zm1.74417,-1.74418l0,3.48836m-1.74417,-1.74418l3.48835,0" stroke-width="0.1" fill="#6b6b6b"/>
  <path stroke="#050504" id="svg_28" d="m417.227694,109.49699l0,0c0,-0.96328 0.78089,-1.74418 1.74417,-1.74418l0,0c0.46259,0 0.90623,0.18377 1.23332,0.51086c0.3271,0.3271 0.51086,0.77074 0.51086,1.23332l0,0c0,0.96329 -0.7809,1.74418 -1.74418,1.74418l0,0c-0.96328,0 -1.74417,-0.78089 -1.74417,-1.74418zm1.74417,-1.74418l0,3.48836m-1.74417,-1.74418l3.48835,0" stroke-width="0.1" fill="#6b6b6b"/>
  <path stroke="#050504" id="svg_29" d="m558.503132,112.061873l0,0c0,-0.96328 0.78089,-1.74418 1.74417,-1.74418l0,0c0.46259,0 0.90623,0.18377 1.23332,0.51086c0.3271,0.3271 0.51086,0.77074 0.51086,1.23332l0,0c0,0.96329 -0.7809,1.74418 -1.74418,1.74418l0,0c-0.96328,0 -1.74417,-0.78089 -1.74417,-1.74418zm1.74417,-1.74418l0,3.48836m-1.74417,-1.74418l3.48835,0" stroke-width="0.1" fill="#6b6b6b"/>
 </g>
</svg>