<?xml version="1.0" encoding="iso-8859-1"?>
<!-- Generator: Adobe Illustrator 16.0.0, SVG Export Plug-In . SVG Version: 6.00 Build 0)  -->
<!DOCTYPE svg PUBLIC "-//W3C//DTD SVG 1.1//EN" "http://www.w3.org/Graphics/SVG/1.1/DTD/svg11.dtd">
<svg xmlns="http://www.w3.org/2000/svg" xmlns:xlink="http://www.w3.org/1999/xlink" version="1.1" id="Capa_1" x="0px" y="0px" width="512px" height="512px" viewBox="0 0 463.042 463.043" style="enable-background:new 0 0 463.042 463.043;" xml:space="preserve">
<g>
	<path d="M326.315,290.761H139.531v31.759h186.784V290.761z M313.586,311.072h-25.572v-8.876h25.572V311.072z M226.389,54.488   c0-5.664,4.606-10.271,10.27-10.271c5.669,0,10.271,4.607,10.271,10.271c0,5.667-4.603,10.271-10.271,10.271   C230.996,64.759,226.389,60.154,226.389,54.488z M293.042,54.488c0-5.664,4.604-10.271,10.268-10.271   c5.669,0,10.276,4.607,10.276,10.271c0,5.667-4.607,10.271-10.276,10.271C297.647,64.759,293.042,60.154,293.042,54.488z    M326.315,207.291H139.531v31.754h186.784V207.291z M313.586,227.602h-25.572v-8.87h25.572V227.602z M97.978,0v374.941h267.087V0   H97.978z M303.31,27.407c14.937,0,27.086,12.147,27.086,27.081s-12.149,27.081-27.086,27.081   c-14.928,0-27.077-12.148-27.077-27.081S288.382,27.407,303.31,27.407z M236.659,27.407c14.936,0,27.081,12.147,27.081,27.081   s-12.146,27.081-27.081,27.081c-14.932,0-27.081-12.148-27.081-27.081S221.727,27.407,236.659,27.407z M343.125,339.319H122.722   v-65.368h220.402V339.319z M343.125,255.854H122.722v-65.373h220.402V255.854z M343.125,171.222H122.722v-65.368h220.402V171.222z    M326.315,122.663H139.531v31.754h186.784V122.663z M313.586,141.804h-25.572v-8.87h25.572V141.804z M313.586,436.425h47.276   v11.206h-47.276v15.412H159.608v-15.412h-42.489v-11.206h42.489v-12.607h57.379V386.05h39.225v37.768h57.374V436.425z" fill="#ffffff"/>
</g>
<g>
</g>
<g>
</g>
<g>
</g>
<g>
</g>
<g>
</g>
<g>
</g>
<g>
</g>
<g>
</g>
<g>
</g>
<g>
</g>
<g>
</g>
<g>
</g>
<g>
</g>
<g>
</g>
<g>
</g>
</svg>
