<?xml version="1.0" encoding="iso-8859-1"?>
<!-- Generator: Adobe Illustrator 16.0.0, SVG Export Plug-In . SVG Version: 6.00 Build 0)  -->
<!DOCTYPE svg PUBLIC "-//W3C//DTD SVG 1.1//EN" "http://www.w3.org/Graphics/SVG/1.1/DTD/svg11.dtd">
<svg xmlns="http://www.w3.org/2000/svg" xmlns:xlink="http://www.w3.org/1999/xlink" version="1.1" id="Capa_1" x="0px" y="0px" width="512px" height="512px" viewBox="0 0 374.941 374.941" style="enable-background:new 0 0 374.941 374.941;" xml:space="preserve">
<g>
	<path d="M282.264,290.76H95.48v31.759h186.784V290.76z M269.536,311.072h-25.567v-8.865h25.567V311.072z M182.338,54.493   c0-5.664,4.604-10.271,10.27-10.271c5.669,0,10.271,4.607,10.271,10.271s-4.603,10.271-10.271,10.271   C186.942,64.764,182.338,60.156,182.338,54.493z M248.992,54.493c0-5.664,4.604-10.271,10.268-10.271   c5.669,0,10.276,4.607,10.276,10.271s-4.607,10.271-10.267,10.271S248.992,60.156,248.992,54.493z M282.264,207.296H95.48v31.756   h186.784V207.296z M269.536,227.607h-25.567v-8.87h25.567V227.607z M53.927,0v374.941h267.087V0H53.927z M259.269,27.412   c14.927,0,27.076,12.148,27.076,27.081c0,14.934-12.149,27.081-27.076,27.081c-14.938,0-27.087-12.147-27.087-27.081   C232.182,39.56,244.332,27.412,259.269,27.412z M192.608,27.412c14.936,0,27.081,12.148,27.081,27.081   c0,14.934-12.146,27.081-27.081,27.081c-14.932,0-27.081-12.147-27.081-27.081C165.527,39.56,177.676,27.412,192.608,27.412z    M299.074,339.33H78.671v-65.38h220.402V339.33z M299.074,255.86H78.671v-65.375h220.402V255.86z M299.074,171.227H78.671v-65.374   h220.402V171.227z M282.264,122.663H95.48v31.754h186.784V122.663z M269.536,141.81h-25.567v-8.87h25.567V141.81z" fill="#ffffff"/>
</g>
<g>
</g>
<g>
</g>
<g>
</g>
<g>
</g>
<g>
</g>
<g>
</g>
<g>
</g>
<g>
</g>
<g>
</g>
<g>
</g>
<g>
</g>
<g>
</g>
<g>
</g>
<g>
</g>
<g>
</g>
</svg>
